<svg xmlns="http://www.w3.org/2000/svg" xmlns:xlink="http://www.w3.org/1999/xlink" id="Ebene_1" x="0px" y="0px" viewBox="0 0 370.28 109.99" style="enable-background:new 0 0 370.28 109.99;" xml:space="preserve"><style type="text/css">	.Grün_x0020_bogenförmig{fill:url(#SVGID_1_);stroke:#FFFFFF;stroke-width:0.25;stroke-miterlimit:1;}	.st0{fill:#82A3CD;}	.st1{fill:#003B75;}</style><linearGradient id="SVGID_1_" gradientUnits="userSpaceOnUse" x1="-107.7586" y1="478.0965" x2="-107.0515" y2="477.3894">	<stop offset="0" style="stop-color:#1DA238"></stop>	<stop offset="0.9831" style="stop-color:#24391D"></stop></linearGradient><path class="st0" d="M95.46,74.6c-8.28,0-12.28-4.01-12.28-11.93V26.53h10.68v36.14c0,1.51,0.45,2.67,1.6,2.67h14.42 c1.07,0,1.69-1.16,1.69-2.67V26.53h10.68v36.14c0,7.92-4.18,11.93-12.28,11.93H95.46z M139.86,74.6c-8.28,0-12.37-4.01-12.37-11.93 v-7.03c0-7.74,4.54-10.59,12.02-11.66l16.38-2.4v-3.12c0-1.51-0.53-2.67-1.6-2.67h-25.19v-9.26h25.19c8.28,0,12.28,4.01,12.28,11.93 v24.21c0,7.92-4.01,11.93-12.28,11.93H139.86z M155.89,50.83l-15.67,2.49c-1.16,0.18-2.05,0.98-2.05,2.31v7.03 c0,1.51,0.53,2.67,1.69,2.67h14.42c1.07,0,1.6-1.16,1.6-2.67V50.83z M185.36,74.6c-8.01,0-12.11-4.01-12.11-11.93V26.53h10.68v36.14 c0,1.51,0.45,2.67,1.42,2.67h9.16v9.26H185.36z M201.87,74.6V26.53h10.68V74.6H201.87z M248.97,74.6V38.45 c0-1.51-0.53-2.67-1.6-2.67h-14.51c-1.16,0-1.6,1.16-1.6,2.67V74.6h-10.68V38.45c0-7.92,4.01-11.93,12.28-11.93h14.51 c8.1,0,12.28,4.01,12.28,11.93V74.6H248.97z M277.62,74.6c-8.28,0-12.29-4.01-12.29-11.93V38.45c0-7.92,4.01-11.93,12.29-11.93 h14.51c8.1,0,12.29,4.01,12.29,11.93v24.21c0,7.92-4.18,11.93-12.29,11.93H277.62z M293.73,38.45c0-1.51-0.53-2.67-1.6-2.67h-14.51 c-1.16,0-1.6,1.16-1.6,2.67v24.21c0,1.51,0.45,2.67,1.6,2.67h14.51c1.07,0,1.6-1.16,1.6-2.67V38.45z M341.3,74.6l-8.55-19.5 c-0.53-1.25-0.98-1.51-1.51-1.51h-2.85c-0.53,0-1.07,0.53-1.51,1.51l-8.55,19.5h-11.57l9.17-20.39c1.16-2.58,2.49-4.45,3.92-5.43 c-1.42-1.07-2.4-2.49-3.92-5.34l-8.81-16.91h11.75l8.01,15.76c0.71,1.42,0.89,1.87,1.16,1.87h3.56c0.09,0,0.36-0.54,1.16-1.87 l8.01-15.76h11.75l-8.9,16.91c-1.33,2.58-2.58,4.27-4.01,5.43c1.6,0.89,2.76,2.4,4.01,5.16l9.26,20.56H341.3z M61.82,17.09H29.58 c-10.15,0-15.04,4.99-15.04,14.87v27.77c0,9.88,4.9,14.87,15.04,14.87h16.25v4.13c0,7.92,4.01,10.76,12.28,10.76h1.25v-9.26h-1.25 c-0.8,0-1.6-0.5-1.6-1.5V74.6h5.3c10.15,0,15.13-4.99,15.13-14.87V31.96C76.95,22.07,71.97,17.09,61.82,17.09z M66.09,59.73 c0,3.12-1.42,5.43-4.27,5.43H29.58c-2.85,0-4.18-2.31-4.18-5.43V31.96c0-3.12,1.33-5.43,4.18-5.43h32.24c2.85,0,4.27,2.31,4.27,5.43 V59.73z"></path><path class="st1" d="M61.82,17.09H29.58c-10.15,0-15.04,4.99-15.04,14.87v27.77c0,9.88,4.9,14.87,15.04,14.87h16.25v4.13 c0,7.92,4.01,10.76,12.28,10.76h1.25v-9.26h-1.25c-0.8,0-1.6-0.5-1.6-1.5V74.6h5.3c10.15,0,15.13-4.99,15.13-14.87V31.96 C76.95,22.07,71.97,17.09,61.82,17.09z M66.09,59.73c0,3.12-1.42,5.43-4.27,5.43H29.58c-2.85,0-4.18-2.31-4.18-5.43V31.96 c0-3.12,1.33-5.43,4.18-5.43h32.24c2.85,0,4.27,2.31,4.27,5.43V59.73z"></path><g>	<path class="st1" d="M94.53,88.92c0.38,1.8,0.49,2.12,0.94,2.61h-3.53c-0.45-0.41-0.47-0.49-0.86-2.33l-0.11-0.58  c-0.19-0.9-0.34-1.54-0.71-1.99c-0.54-0.66-1.28-0.67-1.84-0.67h-0.98v5.57H84.1V78.29h6.06c0.96,0,2.16,0,3.08,0.62  c1.28,0.86,1.29,2.29,1.29,2.78c0,2.81-2.01,3.19-2.74,3.32c1.71,0.34,2.12,1.2,2.55,3.17L94.53,88.92z M87.44,84.21h1.01  c0.67,0,1.52,0,2.03-0.39c0.26-0.21,0.67-0.71,0.67-1.76c0-0.36-0.04-0.69-0.17-0.99c-0.43-0.99-1.31-0.99-2.38-1.01h-1.16V84.21z"></path>	<path class="st1" d="M104.84,90.46c-1.18,1.31-3.13,1.31-3.77,1.31c-0.67,0-1.39-0.04-2.06-0.24c-2.33-0.67-2.74-2.61-2.74-4.44  c0-0.97,0-2.87,1.35-4.07c1.18-1.09,3.04-1.11,3.69-1.11c0.56,0,2.53,0,3.66,1.33c0.92,1.07,0.92,2.63,0.92,3.45  C105.89,87.55,105.89,89.29,104.84,90.46z M102.76,85.41c-0.04-0.58-0.17-2.08-1.61-2.08c-0.28,0-0.54,0.06-0.79,0.19  c-0.77,0.45-0.88,1.41-0.94,1.89c-0.06,0.62-0.07,1.14-0.07,1.52c0,0.41,0.02,0.84,0.06,1.28c0.04,0.58,0.17,2.16,1.67,2.16  c0.24,0,0.49-0.06,0.71-0.17c0.81-0.43,0.9-1.48,0.96-1.99c0.06-0.52,0.08-1.03,0.08-1.56C102.82,86.24,102.8,85.82,102.76,85.41z"></path>	<path class="st1" d="M116.69,91.53h-3.04v-5.85c0-0.94,0.02-2.14-1.29-2.14c-0.28,0-0.51,0.06-0.69,0.13  c-0.81,0.36-0.83,0.99-0.86,1.5v6.36h-3.02V78.29h3.02v4.91c0.49-0.41,1.46-1.24,3.11-1.24c0.43,0,0.92,0.06,1.37,0.24  c1.37,0.6,1.39,1.93,1.41,2.94V91.53z"></path>	<path class="st1" d="M121.96,91.53h-3.04v-9.38h3.04v1.67c0.17-0.39,0.32-0.73,0.71-1.13c0.47-0.45,1.05-0.69,1.63-0.69  c0.36,0,0.54,0.08,0.79,0.17v2.48c-0.3-0.17-0.79-0.43-1.39-0.43c-0.13,0-0.45,0.02-0.83,0.19c-0.9,0.45-0.92,1.26-0.92,1.84V91.53  z"></path>	<path class="st1" d="M129.24,91.53h-3.04V78.29h3.04V91.53z"></path>	<path class="st1" d="M140.45,88.53c-0.06,0.58-0.17,1.72-1.39,2.51c-0.99,0.62-2.42,0.73-3.19,0.73c-1.65,0-2.79-0.43-3.45-1.01  c-1.26-1.13-1.26-3.04-1.26-3.77c0-1.26,0.02-5.08,4.84-5.08c0.68,0,1.35,0.08,2.01,0.28c1.63,0.56,2.08,1.56,2.31,2.78  c0.17,0.9,0.13,1.61,0.11,2.08h-6.19c-0.02,1.42,0.04,3.3,1.69,3.3c0.47,0,0.88-0.19,1.13-0.45c0.39-0.43,0.41-1.09,0.43-1.37  H140.45z M137.45,85.75c0-0.86-0.09-2.42-1.48-2.42c-1.56,0-1.65,1.88-1.69,2.42H137.45z"></path>	<path class="st1" d="M145.32,80.72h-3.06v-2.34h3.06V80.72z M145.3,91.53h-3.04v-9.38h3.04V91.53z"></path>	<path class="st1" d="M150.8,83.46v4.48c0,1.07,0,1.89,1.07,1.89c0.32,0,0.56-0.06,0.75-0.11v1.63c-0.43,0.11-1.11,0.3-2.03,0.3  c-2.85,0-2.83-1.82-2.81-3.34v-4.86h-1.18v-1.33h1.18v-1.84l3.02-0.6v2.44h1.58v1.33H150.8z"></path>	<path class="st1" d="M162.89,91.53h-3.02v-1.07c-0.34,0.32-1.39,1.26-3.15,1.26c-0.56,0-0.98-0.09-1.33-0.24  c-1.37-0.56-1.41-1.86-1.43-2.87v-6.45h3.02v5.68c0,1.09,0,2.33,1.35,2.33c0.49,0,0.96-0.21,1.22-0.52c0.3-0.36,0.3-0.79,0.32-1.14  v-6.34h3.02V91.53z"></path>	<path class="st1" d="M174.11,91.53h-3.02v-5.72c0-0.38,0-0.67-0.04-0.99c-0.02-0.3-0.11-1.28-1.28-1.28c-0.3,0-0.56,0.08-0.73,0.15  c-0.79,0.36-0.81,0.99-0.83,1.5v6.34h-3.02v-9.38h3.02v1.07c0.68-0.6,1.63-1.26,3.13-1.26c1.26,0,1.88,0.49,2.14,0.79  c0.6,0.66,0.6,1.52,0.62,2.19V91.53z"></path>	<path class="st1" d="M185.26,82.15v8.34c0,2.38-0.24,4.05-2.66,4.76c-0.69,0.21-1.44,0.3-2.33,0.3c-1.67,0-2.81-0.38-3.43-0.92  c-0.82-0.73-0.81-1.67-0.79-2.33h2.96c0.04,0.62,0.04,0.83,0.15,1.09c0.26,0.6,0.79,0.82,1.35,0.82c0.24,0,0.96-0.02,1.41-0.77  c0.3-0.53,0.32-1.24,0.34-1.93v-1.18c-0.23,0.26-0.41,0.47-0.79,0.69c-0.54,0.32-1.29,0.51-2.06,0.51c-0.45,0-1.07-0.06-1.65-0.34  c-1.26-0.62-1.76-1.84-1.76-4.22c0-1.11,0.06-2.61,0.84-3.69c0.9-1.22,2.19-1.33,2.87-1.33c1.59,0,2.25,0.86,2.55,1.26v-1.07  H185.26z M182.26,85.52c0-0.6-0.06-1.03-0.28-1.37c-0.19-0.28-0.56-0.62-1.18-0.62c-1.73,0-1.73,2.19-1.73,3.3  c0,1.63,0.11,3.26,1.58,3.26c0.54,0,0.99-0.26,1.28-0.64c0.28-0.41,0.32-0.86,0.34-1.31V85.52z"></path>	<path class="st1" d="M190.14,87.7c-0.71-0.19-1.5-0.38-2.08-0.88c-0.66-0.58-0.81-1.31-0.81-1.88c0-0.53,0.09-1.05,0.36-1.52  c0.73-1.24,2.23-1.52,3.58-1.52c0.54,0,1.09,0.04,1.61,0.13c0.47,0.09,0.94,0.23,1.33,0.49c0.99,0.66,0.99,1.59,1.01,2.19  l-2.64-0.04c0.02-0.43-0.02-1.42-1.28-1.42c-0.81,0-1.27,0.47-1.27,1.03c0,0.77,0.75,0.97,1.59,1.22l0.75,0.17  c0.75,0.19,1.54,0.38,2.1,0.84c0.77,0.62,0.94,1.46,0.94,2.08c0,0.52-0.11,1.05-0.36,1.52c-0.66,1.2-1.99,1.65-3.86,1.65  c-0.56,0-1.13-0.04-1.69-0.15c-0.47-0.08-0.94-0.22-1.35-0.49c-1.14-0.75-1.07-1.95-1.05-2.42l2.79,0.06  c0,0.28-0.02,0.83,0.36,1.22c0.22,0.19,0.6,0.38,1.16,0.38c0.98,0,1.31-0.56,1.31-1.13c0-0.9-0.73-1.09-1.54-1.29L190.14,87.7z"></path>	<path class="st1" d="M203.52,87.83h-6.66v-2.34h6.66V87.83z"></path>	<path class="st1" d="M219.69,91.53h-3.02v-1.07c-0.34,0.32-1.39,1.26-3.15,1.26c-0.56,0-0.98-0.09-1.33-0.24  c-1.37-0.56-1.41-1.86-1.43-2.87v-6.45h3.02v5.68c0,1.09,0,2.33,1.35,2.33c0.49,0,0.96-0.21,1.22-0.52c0.3-0.36,0.3-0.79,0.32-1.14  v-6.34h3.02V91.53z"></path>	<path class="st1" d="M230.9,91.53h-3.02v-5.72c0-0.38,0-0.67-0.04-0.99c-0.02-0.3-0.11-1.28-1.28-1.28c-0.3,0-0.56,0.08-0.73,0.15  c-0.79,0.36-0.81,0.99-0.83,1.5v6.34h-3.02v-9.38h3.02v1.07c0.67-0.6,1.63-1.26,3.13-1.26c1.26,0,1.88,0.49,2.14,0.79  c0.6,0.66,0.6,1.52,0.62,2.19V91.53z"></path>	<path class="st1" d="M242.07,91.53h-3v-1.14c-0.32,0.32-0.62,0.62-1.01,0.84c-0.56,0.34-1.29,0.49-1.95,0.49  c-0.36,0-0.94-0.04-1.5-0.32c-1.43-0.67-1.63-2.04-1.73-2.78c-0.07-0.54-0.09-1.09-0.09-1.63c0-2.85,0.68-4.11,2.01-4.71  c0.52-0.22,1.09-0.32,1.67-0.32c1.46,0,2.03,0.58,2.61,1.16v-4.84h3V91.53z M239.05,85.43c0-1.09-0.56-1.89-1.52-1.89  c-0.24,0-0.47,0.06-0.66,0.15c-0.47,0.23-1.03,0.66-1.03,3.11c0,0.26,0.02,1.28,0.15,1.95c0.06,0.28,0.28,1.39,1.44,1.39  c0.56,0,1.05-0.3,1.29-0.67c0.28-0.45,0.3-1.07,0.32-1.63V85.43z"></path>	<path class="st1" d="M261.52,91.53h-3.45l-1.2-4.37h-3.69l-1.37,4.37h-3.23l4.33-13.24h4.8L261.52,91.53z M256.4,85.21l-0.92-3.39  c-0.08-0.28-0.17-0.66-0.36-1.35c-0.19,0.69-0.22,0.79-0.39,1.35l-1.03,3.39H256.4z"></path>	<path class="st1" d="M271.64,91.53h-3.02v-5.72c0-0.38,0-0.67-0.04-0.99c-0.02-0.3-0.11-1.28-1.28-1.28c-0.3,0-0.56,0.08-0.73,0.15  c-0.79,0.36-0.81,0.99-0.83,1.5v6.34h-3.02v-9.38h3.02v1.07c0.68-0.6,1.63-1.26,3.13-1.26c1.26,0,1.88,0.49,2.14,0.79  c0.6,0.66,0.6,1.52,0.62,2.19V91.53z"></path>	<path class="st1" d="M276.93,91.53h-3.04V78.29h3.04V91.53z"></path>	<path class="st1" d="M284.73,84.98c0-0.45-0.02-0.84-0.19-1.14c-0.32-0.53-0.94-0.53-1.11-0.53c-0.66,0-1.01,0.3-1.16,0.51  c-0.3,0.38-0.32,0.9-0.34,1.28h-2.91c0-0.43-0.02-1.01,0.3-1.58c0.73-1.31,2.61-1.61,4.29-1.61c0.56,0,1.13,0.04,1.71,0.13  c0.58,0.09,1.18,0.26,1.61,0.64c0.83,0.71,0.81,1.73,0.81,2.46v4.5c0,0.51,0,0.84,0.08,1.2c0.07,0.39,0.19,0.49,0.32,0.58v0.11  h-2.49c-0.71,0.02-1.05-0.06-1.03-1.07c-0.32,0.34-1.26,1.31-3.11,1.31c-0.77,0-1.58-0.21-2.08-0.79  c-0.38-0.41-0.66-1.11-0.66-2.03c0-0.38,0.02-1.5,1.14-2.27c0.71-0.47,1.69-0.62,3.34-0.81l1.48-0.15V84.98z M284.73,86.95  c-0.92,0.07-1.16,0.09-1.52,0.19c-0.73,0.17-1.39,0.58-1.39,1.58c0,0.21,0.02,0.41,0.08,0.62c0.21,0.66,0.67,0.84,1.2,0.84  c0.22,0,0.75-0.02,1.14-0.38c0.47-0.43,0.49-1.03,0.49-1.48V86.95z"></path>	<path class="st1" d="M298.87,82.15v8.34c0,2.38-0.24,4.05-2.66,4.76c-0.69,0.21-1.44,0.3-2.33,0.3c-1.67,0-2.81-0.38-3.43-0.92  c-0.82-0.73-0.81-1.67-0.79-2.33h2.96c0.04,0.62,0.04,0.83,0.15,1.09c0.26,0.6,0.79,0.82,1.35,0.82c0.24,0,0.96-0.02,1.41-0.77  c0.3-0.53,0.32-1.24,0.34-1.93v-1.18c-0.22,0.26-0.41,0.47-0.79,0.69c-0.54,0.32-1.29,0.51-2.06,0.51c-0.45,0-1.07-0.06-1.65-0.34  c-1.26-0.62-1.76-1.84-1.76-4.22c0-1.11,0.06-2.61,0.84-3.69c0.9-1.22,2.19-1.33,2.87-1.33c1.59,0,2.25,0.86,2.55,1.26v-1.07  H298.87z M295.87,85.52c0-0.6-0.06-1.03-0.28-1.37c-0.19-0.28-0.56-0.62-1.18-0.62c-1.72,0-1.72,2.19-1.72,3.3  c0,1.63,0.11,3.26,1.57,3.26c0.54,0,0.99-0.26,1.28-0.64c0.28-0.41,0.32-0.86,0.34-1.31V85.52z"></path>	<path class="st1" d="M310.06,88.53c-0.06,0.58-0.17,1.72-1.39,2.51c-0.99,0.62-2.42,0.73-3.19,0.73c-1.65,0-2.79-0.43-3.45-1.01  c-1.26-1.13-1.26-3.04-1.26-3.77c0-1.26,0.02-5.08,4.84-5.08c0.67,0,1.35,0.08,2.01,0.28c1.63,0.56,2.08,1.56,2.31,2.78  c0.17,0.9,0.13,1.61,0.11,2.08h-6.19c-0.02,1.42,0.04,3.3,1.69,3.3c0.47,0,0.88-0.19,1.13-0.45c0.39-0.43,0.41-1.09,0.43-1.37  H310.06z M307.06,85.75c0-0.86-0.09-2.42-1.48-2.42c-1.56,0-1.65,1.88-1.69,2.42H307.06z"></path>	<path class="st1" d="M320.79,91.53h-3.02v-5.72c0-0.38,0-0.67-0.04-0.99c-0.02-0.3-0.11-1.28-1.28-1.28c-0.3,0-0.56,0.08-0.73,0.15  c-0.79,0.36-0.81,0.99-0.83,1.5v6.34h-3.02v-9.38h3.02v1.07c0.67-0.6,1.63-1.26,3.13-1.26c1.26,0,1.88,0.49,2.14,0.79  c0.6,0.66,0.6,1.52,0.62,2.19V91.53z"></path>	<path class="st1" d="M326.05,91.53h-3.02V78.29h3.02v5.04c0.38-0.39,1.31-1.37,3.02-1.37c0.51,0,1.01,0.09,1.46,0.32  c1.33,0.66,1.76,1.93,1.76,4.35c0,0.88-0.06,1.52-0.15,2.04c-0.11,0.64-0.28,1.26-0.66,1.76c-0.64,0.88-1.65,1.28-2.76,1.28  c-1.07,0-1.82-0.38-2.27-0.79c-0.17-0.17-0.28-0.3-0.41-0.49V91.53z M326.05,87.92c0,0.49,0,1.05,0.28,1.52  c0.28,0.47,0.77,0.69,1.26,0.69c0.49,0,0.92-0.22,1.18-0.6c0.47-0.62,0.47-1.86,0.47-2.85c0-1.74-0.13-3.15-1.48-3.15  c-0.3,0-0.56,0.08-0.77,0.19c-0.92,0.45-0.92,1.35-0.94,2.01V87.92z"></path>	<path class="st1" d="M339.72,84.98c0-0.45-0.02-0.84-0.19-1.14c-0.32-0.53-0.94-0.53-1.11-0.53c-0.66,0-1.01,0.3-1.16,0.51  c-0.3,0.38-0.32,0.9-0.34,1.28h-2.91c0-0.43-0.02-1.01,0.3-1.58c0.73-1.31,2.61-1.61,4.29-1.61c0.56,0,1.13,0.04,1.71,0.13  s1.18,0.26,1.61,0.64c0.83,0.71,0.81,1.73,0.81,2.46v4.5c0,0.51,0,0.84,0.08,1.2c0.08,0.39,0.19,0.49,0.32,0.58v0.11h-2.49  c-0.71,0.02-1.05-0.06-1.03-1.07c-0.32,0.34-1.26,1.31-3.11,1.31c-0.77,0-1.58-0.21-2.08-0.79c-0.38-0.41-0.66-1.11-0.66-2.03  c0-0.38,0.02-1.5,1.14-2.27c0.71-0.47,1.69-0.62,3.34-0.81l1.48-0.15V84.98z M339.72,86.95c-0.92,0.07-1.16,0.09-1.52,0.19  c-0.73,0.17-1.39,0.58-1.39,1.58c0,0.21,0.02,0.41,0.07,0.62c0.21,0.66,0.68,0.84,1.2,0.84c0.22,0,0.75-0.02,1.14-0.38  c0.47-0.43,0.49-1.03,0.49-1.48V86.95z"></path>	<path class="st1" d="M353.8,91.53h-3.02v-1.07c-0.34,0.32-1.39,1.26-3.15,1.26c-0.56,0-0.97-0.09-1.33-0.24  c-1.37-0.56-1.41-1.86-1.42-2.87v-6.45h3.02v5.68c0,1.09,0,2.33,1.35,2.33c0.49,0,0.96-0.21,1.22-0.52c0.3-0.36,0.3-0.79,0.32-1.14  v-6.34h3.02V91.53z"></path></g></svg>